<?xml version="1.0" encoding="UTF-8"?><svg id="Layer_2" xmlns="http://www.w3.org/2000/svg" viewBox="0 0 264.2 272.96"><defs><style>.cls-1{fill:#231f20;}</style></defs><g id="Layer_1-2"><path class="cls-1" d="M111.94,48.5l24.02,24.44c-.06,18.03-.13,36.07-.19,54.1-6.15-2.58-13.14-1.54-17.96,2.69-5.78,5.07-7.04,13.51-3.86,20.14,3.05,6.35,9.78,10.21,16.78,9.73,7.3-.5,13.58-5.61,15.61-12.76V49.51c-3.93-16.45-18.63-27.78-34.41-27.35-17.8,.49-33.1,15.82-33.4,35.08-7.58,7.58-15.16,15.16-22.75,22.75C49.34,35.07,82.92-.06,113.12,0c30.14,.06,63.53,35.17,57.06,79.98v27.35c18.04,18.04,36.09,36.09,54.13,54.13-37.17,37.17-74.34,74.34-111.5,111.5-15.33-5.48-42.69-17.52-68.67-43.2C17.97,203.89,5.62,176.43,0,161.12,37.31,123.58,74.63,86.04,111.94,48.5Z"/><path class="cls-1" d="M184.43,106.74c15.44,15.27,30.88,30.55,46.32,45.82-.25,25.76-.5,51.52-.76,77.29,1.84,8.67,9.71,14.64,18.13,14.1,7.65-.49,14.24-6.26,15.86-14.1,.21-3.84,.35-9.31,0-15.86-.76-14.12-1.95-36.23-15.86-59.16-16.42-27.06-40.54-38.74-47.58-42.04-6.41-3-12.05-4.87-16.11-6.04Z"/></g></svg>