<?xml version="1.0" encoding="UTF-8"?><svg id="Layer_2" xmlns="http://www.w3.org/2000/svg" viewBox="0 0 199.2 184.89"><defs><style>.cls-1{fill:#231f20;}</style></defs><g id="Layer_1-2"><path class="cls-1" d="M50.64,.35c3.34,1.47,3.34,7.45,3.77,12.99,2.39,30.53,19.96,68.9,42.96,84.05,27.55,18.14,63.63,21.65,94.97,11.35,2.17-.71,5.02-1.28,6.32,.6,.79,1.14,.56,2.67,.24,4.02-2.27,9.54-7.46,18.14-13.37,25.96-14.24,18.84-33.55,34.34-56.08,41.42-35.17,11.06-76.05-.56-101.17-27.55-2.99-3.21-33.52-35.98-27.49-80.97C6.38,30.45,41.02-3.87,50.64,.35Z"/></g></svg>